<?xml version="1.0" encoding="UTF-8"?>
<svg xmlns="http://www.w3.org/2000/svg" version="1.1" viewBox="0 0 32 32">
  <defs>
    <style>
      .cls-1 {
        fill: #fff;
      }

      .cls-2 {
        fill: #f7941d;
      }
    </style>
  </defs>
  <!-- Generator: Adobe Illustrator 28.6.0, SVG Export Plug-In . SVG Version: 1.2.0 Build 709)  -->
  <g>
    <g id="Layer_1">
      <g id="Layer_1-2" data-name="Layer_1">
        <g id="Layer_1-2">
          <g>
            <rect class="cls-2" width="32" height="32"/>
            <g>
              <path class="cls-1" d="M17.6,21.3h-2.6c0-.3-1-1.8-2.9-4.6-2.1-2.9-3.2-4.9-3.5-6h-.2c.2,1.5.3,2.9.3,4.2s0,3.9.1,6.4h-2.6c.1-2.2.1-4.6.1-7.2s0-4.8-.1-6.6h3.1c0,.4.9,1.9,2.6,4.5,1.9,2.8,2.9,4.7,3.2,5.7h.1c-.2-1.6-.3-3-.3-4.3,0-1.9,0-3.9-.1-5.9h2.7c0,1.7-.1,3.9-.1,6.6s0,5.1.1,7.2h0Z"/>
              <path class="cls-1" d="M27.5,19.7c0,1.5-.7,2.7-2.1,3.7-1.5,1.2-3.7,1.9-6.5,2.1l-.3-1.8c1.9-.1,3.3-.5,4.4-1.1,1.1-.7,1.7-1.5,1.7-2.5,0-1.7-1.6-2.5-4.7-2.5l.2-1.7c1.2,0,2.1-.2,2.9-.6.7-.4,1.1-.9,1.1-1.5,0-1.1-.9-1.7-2.7-1.7s-1.5,0-2.1.2l.2-1.9c.5-.2,1.5-.3,3.1-.3s2.4.3,3.1.8c.7.5,1,1.2,1,2.1s-.3,1.3-.7,1.9c-.5.5-1,.9-1.7,1.1h0c.9.3,1.7.7,2.3,1.3.6.7.9,1.5.9,2.4h0Z"/>
            </g>
          </g>
        </g>
      </g>
    </g>
  </g>
</svg>